<svg xmlns="http://www.w3.org/2000/svg" viewBox="0 0 300 80" fill="none" stroke="currentColor" stroke-width="1.5" stroke-linecap="round" stroke-linejoin="round">
  <path d="M20 55 C30 40, 50 30, 70 35 C90 40, 100 55, 110 50 C120 45, 130 35, 150 30 C170 25, 190 30, 200 40 C210 50, 220 55, 230 50 C240 45, 250 35, 270 30 C280 25, 290 30, 295 35" opacity="0.5"/>
  <path d="M40 60 C50 50, 60 45, 75 48 C85 50, 95 55, 105 52 C115 49, 125 45, 140 42 C155 39, 170 42, 180 48 C190 54, 200 58, 210 55 C220 52, 230 48, 245 45 C260 42, 275 45, 285 50" opacity="0.3"/>
</svg>
